<?xml version="1.0" encoding="UTF-8"?>
<svg width="16px" height="16px" viewBox="0 0 16 16" version="1.1" xmlns="http://www.w3.org/2000/svg" xmlns:xlink="http://www.w3.org/1999/xlink">
    <!-- Generator: Sketch 52.6 (67491) - http://www.bohemiancoding.com/sketch -->
    <title>Instagram-black</title>
    <desc>Created with Sketch.</desc>
    <g id="Page-2" stroke="none" stroke-width="1" fill="none" fill-rule="evenodd">
        <g id="Главная" transform="translate(-1164.000000, -3311.000000)" fill="#FFFFFF">
            <g id="Group-30" transform="translate(0.000000, 3194.000000)">
                <g id="follow-us" transform="translate(1123.000000, 65.000000)">
                    <g id="Social/bar-white" transform="translate(1.000000, 52.000000)">
                        <path d="M48.0000159,0 C50.1726696,0 50.4451047,0.00920925451 51.2983898,0.0481421718 C52.1498965,0.086979821 52.731445,0.222228838 53.240304,0.420005518 C53.7663747,0.624419212 54.2125155,0.897965827 54.6572907,1.34270931 C55.1020342,1.78748454 55.3755808,2.23362529 55.5800262,2.75969602 C55.7777712,3.26855496 55.9130202,3.8501035 55.9518578,4.70161023 C55.9907907,5.55489529 56,5.82733045 56,8.00001588 C56,10.1726696 55.9907907,10.4451047 55.9518578,11.2983898 C55.9130202,12.1498965 55.7777712,12.731445 55.5800262,13.240304 C55.3755808,13.7663747 55.1020342,14.2125155 54.6572907,14.6572907 C54.2125155,15.1020342 53.7663747,15.3755808 53.240304,15.5800262 C52.731445,15.7777712 52.1498965,15.9130202 51.2983898,15.9518578 C50.4451047,15.9907907 50.1726696,16 48.0000159,16 C45.8273304,16 45.5548953,15.9907907 44.7016102,15.9518578 C43.8501035,15.9130202 43.268555,15.7777712 42.759696,15.5800262 C42.2336253,15.3755808 41.7874845,15.1020342 41.3427093,14.6572907 C40.8979658,14.2125155 40.6244192,13.7663747 40.4200055,13.240304 C40.2222288,12.731445 40.0869798,12.1498965 40.0481422,11.2983898 C40.0092093,10.4451047 40,10.1726696 40,8.00001588 C40,5.82733045 40.0092093,5.55489529 40.0481422,4.70161023 C40.0869798,3.8501035 40.2222288,3.26855496 40.4200055,2.75969602 C40.6244192,2.23362529 40.8979658,1.78748454 41.3427093,1.34270931 C41.7874845,0.897965827 42.2336253,0.624419212 42.759696,0.420005518 C43.268555,0.222228838 43.8501035,0.086979821 44.7016102,0.0481421718 C45.5548953,0.00920925451 45.8273304,0 48.0000159,0 Z M48.0000159,1.44143887 C45.8639134,1.44143887 45.6108812,1.44960017 44.7673135,1.4880885 C43.9873214,1.52365528 43.5637274,1.65398211 43.281829,1.76354048 C42.9084096,1.90866563 42.6419128,2.08202191 42.3619832,2.36198324 C42.0820219,2.64191283 41.9086656,2.9084096 41.7635405,3.28182899 C41.6539821,3.56372745 41.5236553,3.9873214 41.4880885,4.7673135 C41.4496002,5.61088121 41.4414389,5.86391342 41.4414389,8.00001588 C41.4414389,10.1360866 41.4496002,10.3891188 41.4880885,11.2326865 C41.5236553,12.0126786 41.6539821,12.4362726 41.7635405,12.718171 C41.9086656,13.0915904 42.0820537,13.3580872 42.3619832,13.6380168 C42.6419128,13.9179781 42.9084096,14.0913344 43.281829,14.2364595 C43.5637274,14.3460179 43.9873214,14.4763447 44.7673135,14.5119115 C45.6107859,14.5503998 45.8637546,14.5585611 48.0000159,14.5585611 C50.1362454,14.5585611 50.3892458,14.5503998 51.2326865,14.5119115 C52.0126786,14.4763447 52.4362726,14.3460179 52.718171,14.2364595 C53.0915904,14.0913344 53.3580872,13.9179781 53.6380168,13.6380168 C53.9179781,13.3580872 54.0913344,13.0915904 54.2364595,12.718171 C54.3460179,12.4362726 54.4763447,12.0126786 54.5119115,11.2326865 C54.5503998,10.3891188 54.5585611,10.1360866 54.5585611,8.00001588 C54.5585611,5.86391342 54.5503998,5.61088121 54.5119115,4.7673135 C54.4763447,3.9873214 54.3460179,3.56372745 54.2364595,3.28182899 C54.0913344,2.9084096 53.9179781,2.64191283 53.6380168,2.36198324 C53.3580872,2.08202191 53.0915904,1.90866563 52.718171,1.76354048 C52.4362726,1.65398211 52.0126786,1.52365528 51.2326865,1.4880885 C50.3891188,1.44960017 50.1360866,1.44143887 48.0000159,1.44143887 Z M48.0000159,3.89189447 C50.2688586,3.89189447 52.1081055,5.73114137 52.1081055,8.00001588 C52.1081055,10.2688586 50.2688586,12.1081055 48.0000159,12.1081055 C45.7311414,12.1081055 43.8918945,10.2688586 43.8918945,8.00001588 C43.8918945,5.73114137 45.7311414,3.89189447 48.0000159,3.89189447 Z M48.0000159,10.6666667 C49.4727662,10.6666667 50.6666667,9.47276621 50.6666667,8.00001588 C50.6666667,6.52723379 49.4727662,5.33333333 48.0000159,5.33333333 C46.5272338,5.33333333 45.3333333,6.52723379 45.3333333,8.00001588 C45.3333333,9.47276621 46.5272338,10.6666667 48.0000159,10.6666667 Z M53.2304279,3.7295893 C53.2304279,4.25978831 52.8006097,4.68957469 52.2704107,4.68957469 C51.7402434,4.68957469 51.3104253,4.25978831 51.3104253,3.7295893 C51.3104253,3.19939028 51.7402434,2.76957215 52.2704107,2.76957215 C52.8006097,2.76957215 53.2304279,3.19939028 53.2304279,3.7295893 Z" id="Instagram"></path>
                    </g>
                </g>
            </g>
        </g>
    </g>
</svg>