<?xml version="1.0" encoding="UTF-8"?>
<svg width="16px" height="14px" viewBox="0 0 16 14" version="1.1" xmlns="http://www.w3.org/2000/svg" xmlns:xlink="http://www.w3.org/1999/xlink">
    <!-- Generator: Sketch 52.6 (67491) - http://www.bohemiancoding.com/sketch -->
    <title>Twitter-black</title>
    <desc>Created with Sketch.</desc>
    <g id="Page-2" stroke="none" stroke-width="1" fill="none" fill-rule="evenodd">
        <g id="Главная" transform="translate(-1205.000000, -3312.000000)" fill="#FFFFFF">
            <g id="Group-30" transform="translate(0.000000, 3194.000000)">
                <g id="follow-us" transform="translate(1123.000000, 65.000000)">
                    <g id="Social/bar-white" transform="translate(1.000000, 52.000000)">
                        <path d="M97,2.91176117 C96.4121031,3.17948718 95.7791278,3.3605393 95.1151611,3.44143493 C95.7932148,3.02540026 96.3134942,2.36571566 96.5586077,1.5798724 C95.9237542,1.96508968 95.2222222,2.24533526 94.4727945,2.39557 C93.8755063,1.74166366 93.0218348,1.33333333 92.0770676,1.33333333 C90.265481,1.33333333 88.7957387,2.84049597 88.7957387,4.69916938 C88.7957387,4.96304322 88.8239127,5.21921271 88.8802606,5.46575178 C86.1520808,5.32514747 83.7338146,3.98651739 82.1138111,1.94775491 C81.8311322,2.44661129 81.6696015,3.02540026 81.6696015,3.64174792 C81.6696015,4.8089563 82.2490462,5.83941254 83.1299525,6.44324064 C82.5927687,6.42686891 82.0856371,6.27374503 81.6423666,6.0233538 L81.6423666,6.06476466 C81.6423666,7.69615987 82.7740212,9.05693993 84.2766332,9.36511376 C84.0014674,9.4440833 83.7112755,9.48356808 83.4116922,9.48356808 C83.2003874,9.48356808 82.9937782,9.46334417 82.793743,9.4238594 C83.211657,10.7605634 84.4231379,11.7342001 85.8600106,11.7602022 C84.7368081,12.6635368 83.3205963,13.2018779 81.7832365,13.2018779 C81.5184011,13.2018779 81.2563832,13.1864692 81,13.1556519 C82.4528379,14.1090646 84.1789634,14.6666667 86.0318718,14.6666667 C92.0704936,14.6666667 95.3715443,9.53846154 95.3715443,5.09016492 C95.3715443,4.94378235 95.3687269,4.79739978 95.3630921,4.65390634 C96.0045196,4.17912604 96.5614251,3.58685446 97,2.91176117" id="Twitter"></path>
                    </g>
                </g>
            </g>
        </g>
    </g>
</svg>