<?xml version="1.0" encoding="UTF-8"?>
<svg width="16px" height="12px" viewBox="0 0 16 12" version="1.1" xmlns="http://www.w3.org/2000/svg" xmlns:xlink="http://www.w3.org/1999/xlink">
    <!-- Generator: Sketch 52.6 (67491) - http://www.bohemiancoding.com/sketch -->
    <title>Youtube-black</title>
    <desc>Created with Sketch.</desc>
    <g id="Page-2" stroke="none" stroke-width="1" fill="none" fill-rule="evenodd">
        <g id="Главная" transform="translate(-1244.000000, -3313.000000)" fill="#FFFFFF">
            <g id="Group-30" transform="translate(0.000000, 3194.000000)">
                <g id="follow-us" transform="translate(1123.000000, 65.000000)">
                    <g id="Social/bar-white" transform="translate(1.000000, 52.000000)">
                        <path d="M126.348,10.089972 L126.3475,5.56258053 L130.6705,7.83408125 L126.348,10.089972 Z M135.84,4.77805423 C135.84,4.77805423 135.6835,3.667733 135.204,3.17878882 C134.5955,2.53676634 133.9135,2.53374506 133.601,2.49648258 C131.362,2.33333333 128.0035,2.33333333 128.0035,2.33333333 L127.9965,2.33333333 C127.9965,2.33333333 124.638,2.33333333 122.399,2.49648258 C122.086,2.53374506 121.4045,2.53676634 120.7955,3.17878882 C120.316,3.667733 120.16,4.77805423 120.16,4.77805423 C120.16,4.77805423 120,6.08224108 120,7.38592438 L120,8.6085366 C120,9.91272345 120.16,11.2164067 120.16,11.2164067 C120.16,11.2164067 120.316,12.326728 120.7955,12.8156722 C121.4045,13.4576946 122.204,13.4375528 122.56,13.5045245 C123.84,13.6283971 128,13.6666667 128,13.6666667 C128,13.6666667 131.362,13.6616312 133.601,13.498482 C133.9135,13.4607159 134.5955,13.4576946 135.204,12.8156722 C135.6835,12.326728 135.84,11.2164067 135.84,11.2164067 C135.84,11.2164067 136,9.91272345 136,8.6085366 L136,7.38592438 C136,6.08224108 135.84,4.77805423 135.84,4.77805423 L135.84,4.77805423 Z" id="Youtube"></path>
                    </g>
                </g>
            </g>
        </g>
    </g>
</svg>